<?xml version="1.0" encoding="UTF-8" standalone="no"?>
<!-- Created with Inkscape (http://www.inkscape.org/) -->

<svg
   xmlns:dc="http://purl.org/dc/elements/1.1/"
   xmlns:cc="http://creativecommons.org/ns#"
   xmlns:rdf="http://www.w3.org/1999/02/22-rdf-syntax-ns#"
   xmlns:svg="http://www.w3.org/2000/svg"
   xmlns="http://www.w3.org/2000/svg"
   xmlns:sodipodi="http://sodipodi.sourceforge.net/DTD/sodipodi-0.dtd"
   xmlns:inkscape="http://www.inkscape.org/namespaces/inkscape"
   width="128"
   height="128"
   viewBox="0 0 128 128"
   version="1.1"
   id="SVGRoot"
   inkscape:version="0.92.3 (2405546, 2018-03-11)"
   sodipodi:docname="rope_anchor_hover.svg"
   inkscape:export-filename="/home/corn/projekte/CableCar/data/rope_anchor_hover.png"
   inkscape:export-xdpi="96"
   inkscape:export-ydpi="96">
  <sodipodi:namedview
     id="base"
     pagecolor="#ffffff"
     bordercolor="#666666"
     borderopacity="1.0"
     inkscape:pageopacity="0.0"
     inkscape:pageshadow="2"
     inkscape:zoom="4.7109375"
     inkscape:cx="56.014784"
     inkscape:cy="32.372792"
     inkscape:document-units="px"
     inkscape:current-layer="layer1"
     showgrid="false"
     inkscape:window-width="839"
     inkscape:window-height="1399"
     inkscape:window-x="1707"
     inkscape:window-y="27"
     inkscape:window-maximized="0"
     inkscape:grid-bbox="true"
     inkscape:snap-to-guides="true"
     inkscape:snap-grids="true" />
  <defs
     id="defs3753" />
  <metadata
     id="metadata3756">
    <rdf:RDF>
      <cc:Work
         rdf:about="">
        <dc:format>image/svg+xml</dc:format>
        <dc:type
           rdf:resource="http://purl.org/dc/dcmitype/StillImage" />
        <dc:title></dc:title>
      </cc:Work>
    </rdf:RDF>
  </metadata>
  <g
     id="layer1"
     inkscape:groupmode="layer"
     inkscape:label="Layer 1"
     transform="translate(0,112)">
    <circle
       id="path3769"
       cx="64"
       cy="-48"
       r="35"
       style="fill:#ff6600;stroke-width:5.25821543" />
    <path
       style="fill:#ff6600;stroke-width:9.61502171"
       d="M 64 0 A 64 64 0 0 0 0 64 A 64 64 0 0 0 64 128 A 64 64 0 0 0 128 64 A 64 64 0 0 0 64 0 z M 64 14 A 50 50 0 0 1 114 64 A 50 50 0 0 1 64 114 A 50 50 0 0 1 14 64 A 50 50 0 0 1 64 14 z "
       transform="translate(0,-112)"
       id="path3769-7" />
  </g>
</svg>
